# xmcd
#
# Track frame offsets: 
#        150
#        18675
#        40473
#        54708
#        70555
#        93988
#        115671
#        134109
#        157218
#        175060
#        183902
#        197816
#        214268
#        227566
#        278608
#        293860
#
# Disc length: 4186 seconds
#
# Revision: 0
# Processed by: cddbd v1.5.1PL2 Copyright (c) Steve Scherf et al.
# Submitted via: ExactAudioCopy v0.90a11
#
DISCID=ef105810
DTITLE=Dr. Ralph Stanley and The Clinch Mountain Boys - 07.24.1999 Podun
DTITLE=k Bluegrass Festival - Hartford, CT
DYEAR=1900
DGENRE=
TTITLE0=Intro > Katy Daley
TTITLE1=Worried Man Blues
TTITLE2=Sittin' On Top Of The World
TTITLE3=The Cannonball Blues
TTITLE4=Mary, Merry Christmas
TTITLE5=Pretty Little Indian
TTITLE6=The Room At The Top Of The Stairs >Little Maggie
TTITLE7=Listen To My Hammer Ring
TTITLE8=Folsom Prison Blues > You Were Always On My Mind
TTITLE9=I'll Answer The Call
TTITLE10=Glory Land
TTITLE11=Jesus Savior, Pilot Me
TTITLE12=Clawhammer Tune
TTITLE13=If I loose > The Kitten And The Cat
TTITLE14=Orange Blossom Special
TTITLE15=All I Ever Loved Was You
EXTD=
EXTT0=
EXTT1=
EXTT2=
EXTT3=
EXTT4=
EXTT5=
EXTT6=
EXTT7=
EXTT8=
EXTT9=
EXTT10=
EXTT11=
EXTT12=
EXTT13=
EXTT14=
EXTT15=
PLAYORDER=
